<svg id="Layer_1" data-name="Layer 1" xmlns="http://www.w3.org/2000/svg" viewBox="0 0 288 288"><defs><style>.cls-1{fill:#173a64;}.cls-2{fill:#78be43;}.cls-3{fill:none;stroke:#173a64;stroke-miterlimit:10;stroke-width:10px;}.cls-4{fill:#d54799;}.cls-5{fill:#f1f2f2;}</style></defs><path class="cls-1" d="M123.51,183.35c0-20.48.23-55.23.46-75.71h-1.84c-2.76,37.74-8.06,102.63-8.52,113H86.92c-1.15-21.63-6-84.22-8.74-113.68H76.34c.23,18.18,1.15,48.79,1.15,75.25v38.43H44.12V67.37h49.7c1.62,14.27,5.07,49,6.22,67.43h1.38c2.07-21.64,3-36.13,6.21-67.43h51.78V220.63h-35.9Z"/><path class="cls-2" d="M159.2,220.63V67.37h38.2c3.68,16.8,15.19,77.09,16.11,83.53h1.61c-2.53-24.16-5.53-63.74-5.53-78V67.37h34.29V220.63H202.69c-1.84-13.12-12.65-83.76-13.35-88.83H187.5c1.15,17,4.15,67.43,4.15,85.14v3.69Z"/><circle class="cls-3" cx="144" cy="144" r="136.6"/><path class="cls-1" d="M100.14,238.09H98.67c0-.24-.09-.82-.11-1.12a2,2,0,0,1-2.09,1.32c-2,0-2.66-1.47-2.66-3.79v-6.77c0-2.29.9-3.86,3.19-3.86,2.73,0,3.1,2,3.1,3.6v.41H98.22v-.49c0-.84-.11-1.81-1.23-1.81-.87,0-1.27.58-1.27,1.9v7.19c0,1.23.34,2,1.23,2,1.08,0,1.31-1,1.31-2.55V232H96.89v-1.63h3.25Z"/><path class="cls-1" d="M103.85,231.7v6.39H102v-14h2.76c2.13,0,3.29.88,3.29,3.32V228c0,2-.79,2.69-1.42,2.94.84.36,1.29,1,1.29,2.87a38.94,38.94,0,0,0,.13,4.32H106.2a31.71,31.71,0,0,1-.15-4.19c0-1.75-.23-2.2-1.54-2.2Zm0-1.57h.67c1.23,0,1.62-.57,1.62-2.09v-.54c0-1.16-.28-1.87-1.58-1.87h-.71Z"/><path class="cls-1" d="M111.49,234l-.57,4.06H109l2.28-14H114l2.37,14h-2l-.63-4.06Zm2-1.73c-.39-2.68-.71-5-.86-6.47h-.07c-.06,1.13-.52,4.2-.84,6.47Z"/><path class="cls-1" d="M117.42,224.06h2.89c2.17,0,3.24,1.08,3.24,3.48v.83c0,2.23-.74,3.78-3.35,3.78h-.89v5.94h-1.89Zm1.89,6.53H120c1.45,0,1.68-.86,1.68-2.27v-.72c0-1.06-.21-2-1.51-2h-.86Z"/><path class="cls-1" d="M124.92,224.06h1.88v5.66h2.58v-5.66h1.88v14h-1.88v-6.64H126.8v6.64h-1.88Z"/><path class="cls-1" d="M139.44,227.67v6.77c0,2.59-1.09,3.85-3.35,3.85s-3.16-1.34-3.16-3.82v-6.81c0-2.56,1.24-3.79,3.29-3.79S139.44,225.17,139.44,227.67Zm-4.59-.15v7.15c0,1.33.48,1.92,1.33,1.92s1.34-.56,1.34-2v-7.11c0-1.27-.41-1.93-1.35-1.93S134.85,226.19,134.85,227.52Zm3.7,9.42,1.86,1.47-1.12,1.31L137.05,238Z"/><path class="cls-1" d="M141.15,224.06H143V236.4h3.53l-.17,1.69h-5.24Z"/><path class="cls-1" d="M154.52,232.6c0-2.46,0-5.34.07-6.91h0c-.33,2.4-1.23,8.29-1.9,12.4h-1.8c-.5-3.63-1.42-9.87-1.75-12.41h0c0,1.63.11,4.81.11,7.22v5.19h-1.71v-14h2.79c.64,3.81,1.35,8.29,1.54,10.18h0c.23-1.89,1.12-6.59,1.77-10.18h2.71v14h-1.79Z"/><path class="cls-1" d="M158.29,238.09v-14h2.2c.64,2.24,2.43,9.35,2.61,10.26h0c-.09-1.79-.1-3.77-.1-6.07v-4.19h1.75v14h-2.12c-.58-2.08-2.5-9.78-2.7-10.59h0c.1,1.69.11,3.73.11,6.26v4.33Z"/><path class="cls-1" d="M166.34,238.09v-3h1.88v3Z"/><path class="cls-1" d="M175.61,234v.51c0,1.68-.29,3.81-3.08,3.81-2.52,0-3-1.67-3-3.77v-7.1c0-2.2,1-3.55,3.05-3.55,2.52,0,3,1.71,3,3.61v.59h-1.89v-.79c0-1-.2-1.7-1.1-1.7s-1.12.65-1.12,1.72v7.36c0,1.13.23,1.93,1.15,1.93s1.12-.76,1.12-1.92V234Z"/><path class="cls-1" d="M183.37,227.67v6.77c0,2.59-1.09,3.85-3.34,3.85s-3.17-1.34-3.17-3.82v-6.81c0-2.56,1.24-3.79,3.29-3.79S183.37,225.17,183.37,227.67Zm-4.59-.15v7.15c0,1.33.48,1.92,1.33,1.92s1.34-.56,1.34-2v-7.11c0-1.27-.41-1.93-1.34-1.93S178.78,226.19,178.78,227.52Z"/><path class="cls-1" d="M192.08,232.6c0-2.46,0-5.34.08-6.91h0c-.33,2.4-1.23,8.29-1.9,12.4h-1.8c-.5-3.63-1.42-9.87-1.75-12.41h0c0,1.63.11,4.81.11,7.22v5.19H185v-14h2.8c.64,3.81,1.35,8.29,1.54,10.18h0c.23-1.89,1.12-6.59,1.77-10.18h2.71v14h-1.8Z"/><path class="cls-4" d="M144,209.5a14,14,0,0,1-14-14,12.91,12.91,0,0,1,.12-1.73l-22.26-12.85a16.37,16.37,0,0,1-1.44,1,14.22,14.22,0,0,1-7,1.87,14,14,0,0,1-7-26.13,14.29,14.29,0,0,1,1.52-.75V131.15a14.18,14.18,0,0,1-1.56-.78,14,14,0,0,1,7-26.12,14.17,14.17,0,0,1,7,1.87,17.47,17.47,0,0,1,1.45,1l22.27-12.85A13.2,13.2,0,0,1,130,92.5a14,14,0,0,1,28,0,13.38,13.38,0,0,1-.12,1.77l22.26,12.84a13.09,13.09,0,0,1,1.48-1,13.93,13.93,0,0,1,7-1.88,14,14,0,0,1,7,26.12,13.35,13.35,0,0,1-1.56.78v25.72a12.1,12.1,0,0,1,1.53.76,14,14,0,0,1-7,26.12,14.1,14.1,0,0,1-7-1.87,14.66,14.66,0,0,1-1.75-1.2l-22,12.7a13.67,13.67,0,0,1,.17,2.12A14,14,0,0,1,144,209.5Zm0-28a14,14,0,0,1,8.64,3l16-9.25H120l15.67,9A13.76,13.76,0,0,1,144,181.5Zm31.68-17.21c.22-.5.47-1,.76-1.52a15.34,15.34,0,0,1,1-1.46L145.7,106.39a14,14,0,0,1-1.69.11,13.7,13.7,0,0,1-1.69-.11l-31.71,54.94a13.44,13.44,0,0,1,.94,1.42,14.73,14.73,0,0,1,.77,1.54Zm-70.76-15L129,107.54l-15.71,9.07a14,14,0,0,1-8.37,14.5Zm78.15,0V131.11a13.58,13.58,0,0,1-6.59-5.87,13.77,13.77,0,0,1-1.78-8.61L159,107.57Z"/><path class="cls-5" d="M144,79.51a13,13,0,0,1,13,13,12.51,12.51,0,0,1-.21,2.29l23.44,13.53a12.8,12.8,0,0,1,1.89-1.33,12.94,12.94,0,0,1,6.47-1.74,13,13,0,0,1,6.51,24.26,12.37,12.37,0,0,1-2.06,1v27.09a12.8,12.8,0,0,1,2,.94,13,13,0,1,1-13,22.52,14.31,14.31,0,0,1-2.15-1.55l-23.2,13.4a13,13,0,1,1-25.51.39l-23.44-13.53a14,14,0,0,1-1.86,1.3,13,13,0,1,1-13-22.54,13.58,13.58,0,0,1,2-.93V130.46a12.37,12.37,0,0,1-2.06-1,13,13,0,0,1,6.5-24.26,13.08,13.08,0,0,1,6.5,1.74,13.59,13.59,0,0,1,1.86,1.32l23.45-13.54A12.94,12.94,0,0,1,144,79.51M103.93,153l27.81-48.18-19.53,11.28a13,13,0,0,1-8.28,14.34V153m80.15,0V130.43a12.71,12.71,0,0,1-6.72-5.69,12.9,12.9,0,0,1-1.56-8.64l-19.51-11.26L184.08,153M144,105.5a13.86,13.86,0,0,1-2.22-.19L109.4,161.42a13.19,13.19,0,0,1,1.29,1.84,12.46,12.46,0,0,1,1,2h64.73a14.38,14.38,0,0,1,.95-2,13.39,13.39,0,0,1,1.29-1.86l-32.38-56.1a12.73,12.73,0,0,1-2.22.2m-8.31,80a13,13,0,0,1,16.85.21l19.86-11.47H116.22L135.7,185.5m8.31-108a15,15,0,0,0-15,15c0,.4,0,.8.05,1.21l-21.13,12.2c-.32-.22-.65-.43-1-.64a15.18,15.18,0,0,0-7.53-2,15,15,0,0,0-7.49,28,11.57,11.57,0,0,0,1,.55v24.43c-.34.16-.68.34-1,.53a15,15,0,0,0,15,26c.35-.21.69-.42,1-.65l21.13,12.2c0,.4-.05.8-.05,1.19a15,15,0,0,0,30,0,14.12,14.12,0,0,0-.09-1.59l20.84-12a14.36,14.36,0,0,0,1.33.86,15,15,0,0,0,20.5-5.49,15,15,0,0,0-5.51-20.49c-.34-.19-.68-.37-1-.54V131.79c.37-.17.72-.36,1.07-.56a15,15,0,1,0-15-26c-.36.21-.71.43-1,.66L159,93.73c0-.42.05-.83.05-1.23a15,15,0,0,0-15-15Zm0,30c.38,0,.76,0,1.15,0l31.06,53.8c-.22.33-.43.66-.63,1s-.38.7-.54,1H113c-.16-.33-.34-.67-.53-1s-.43-.69-.64-1l31.06-53.82c.39,0,.77,0,1.15,0Zm-29.65,9.66,11.92-6.89-20.35,35.25V131.75a15,15,0,0,0,8.43-14.59Zm67.72,28.35-20.33-35.2,11.9,6.87a15,15,0,0,0,8.43,14.57v13.76Zm-58.4,30.73h41.26l-12.22,7.06a15,15,0,0,0-17.16-.2l-11.88-6.86Z"/></svg>